<?xml version="1.0" encoding="UTF-8" standalone="no"?>
<!-- Created with Inkscape (http://www.inkscape.org/) -->

<svg
   xmlns:dc="http://purl.org/dc/elements/1.1/"
   xmlns:cc="http://creativecommons.org/ns#"
   xmlns:rdf="http://www.w3.org/1999/02/22-rdf-syntax-ns#"
   xmlns:svg="http://www.w3.org/2000/svg"
   xmlns="http://www.w3.org/2000/svg"
   xmlns:sodipodi="http://sodipodi.sourceforge.net/DTD/sodipodi-0.dtd"
   xmlns:inkscape="http://www.inkscape.org/namespaces/inkscape"
   width="300"
   height="300"
   id="svg2"
   version="1.1"
   inkscape:version="0.48.4 r9939"
   sodipodi:docname="comic.svg">
  <defs
     id="defs4" />
  <sodipodi:namedview
     id="base"
     pagecolor="#ffffff"
     bordercolor="#666666"
     borderopacity="1.0"
     inkscape:pageopacity="0.0"
     inkscape:pageshadow="2"
     inkscape:zoom="0.98994949"
     inkscape:cx="258.13472"
     inkscape:cy="272.24503"
     inkscape:document-units="px"
     inkscape:current-layer="layer1"
     showgrid="false"
     inkscape:window-width="1920"
     inkscape:window-height="1031"
     inkscape:window-x="0"
     inkscape:window-y="25"
     inkscape:window-maximized="1" />
  <metadata
     id="metadata7">
    <rdf:RDF>
      <cc:Work
         rdf:about="">
        <dc:format>image/svg+xml</dc:format>
        <dc:type
           rdf:resource="http://purl.org/dc/dcmitype/StillImage" />
        <dc:title />
      </cc:Work>
    </rdf:RDF>
  </metadata>
  <g
     inkscape:label="Layer 1"
     inkscape:groupmode="layer"
     id="layer1"
     transform="translate(0,-752.36218)">
    <path
       sodipodi:nodetypes="ccscscc"
       inkscape:connector-curvature="0"
       id="path4057"
       d="m 18.879496,758.49714 c 95.162034,2.78155 177.956744,6.07614 273.174474,4.9578 -9.87152,62.31651 5.15257,125.1608 2.22487,188.1976 -1.25583,27.03935 -8.3681,79.81276 -8.3681,79.81276 0,0 -43.0269,1.1223 -59.02248,0.3066 -71.56432,-3.6493 -143.301731,-0.5089 -214.949676,0.3955 -12.7114229,-93.56175 18.674122,-196.17256 6.940912,-273.67026 z"
       style="fill:#ff6f51;fill-opacity:1;stroke:none" />
    <path
       style="fill:#000000;stroke:#000000;stroke-width:0.4907966px;stroke-linecap:butt;stroke-linejoin:miter;stroke-opacity:1"
       d="m 75.23427,931.64446 c -9.990356,-3.45371 -21.140391,3.90873 -23.169086,13.96702 -2.342843,8.5564 -19.789159,3.29118 -11.370838,13.68256 6.204132,5.38588 11.611878,15.26544 3.528866,21.71741 -4.919199,6.83023 -10.796661,16.10292 -8.196149,24.74635 10.193813,8.2026 25.368672,5.2195 37.757998,6.3146 12.14862,2.0641 9.844585,-12.6896 11.824566,-20.16602 3.210664,-10.26859 -3.64842,-18.59722 -11.314196,-23.20464 -2.037224,-9.45564 18.933097,-14.22818 5.990579,-22.00092 -10.799802,-2.57188 -0.109648,-11.96234 -7.53066,-16.04794"
       id="path4059"
       inkscape:connector-curvature="0" />
    <path
       style="fill:#000000;stroke:#000000;stroke-width:0.4907966px;stroke-linecap:butt;stroke-linejoin:miter;stroke-opacity:1"
       d="m 240.98869,982.09367 c 3.34383,-8.74188 -3.08517,-12.49604 -10.32905,-12.94139 -9.61459,-4.98555 -3.03157,-17.87654 6.61771,-12.04253 11.22049,4.09435 11.56625,-14.80239 22.97713,-9.47892 8.97757,2.13741 14.68463,9.76722 16.56334,18.45688 5.23301,6.34309 -9.47414,5.85176 -7.55405,13.38614 -6.47864,8.33442 5.47325,13.86474 8.87047,20.02371 0.88225,9.03394 6.5834,9.72714 10.2606,17.38064 l -2.82198,14.5516 c -13.64397,0.389 -42.97433,1.0409 -42.97433,1.0409 -11.86092,0.1656 -13.68495,-11.1221 -7.97517,-19.4894 1.22178,-10.6291 14.46568,-13.45052 16.18458,-22.33025 -3.18899,-4.5479 -8.98462,-3.79892 -13.30092,-4.24834 1.46623,-1.68064 3.14351,-1.16597 3.48167,-4.30904 z"
       id="path4061"
       inkscape:connector-curvature="0"
       sodipodi:nodetypes="cccccccccccccc" />
    <path
       sodipodi:nodetypes="csccc"
       inkscape:connector-curvature="0"
       id="path4055"
       d="m 285.91074,1031.4653 c 0,0 -43.0269,1.1223 -59.02248,0.3066 -71.56432,-3.6493 -143.301731,-0.5089 -214.949676,0.3955 -1.566555,-11.5305 -2.6171263,-23.2569 -2.8536681,-34.93999 133.6790141,0.0691 186.1695641,22.38169 276.8258241,34.23789 z"
       style="fill:#fce94f;stroke:none" />
    <path
       style="fill:#204a87;stroke:#000000;stroke-width:1.96318638;stroke-linecap:butt;stroke-linejoin:miter;stroke-miterlimit:4;stroke-opacity:1;stroke-dasharray:none"
       d="m 195.51556,887.2492 c 20.47413,41.35988 12.0172,79.67031 29.09723,106.22241 l -60.64844,-2.10342"
       id="path3843"
       inkscape:connector-curvature="0"
       sodipodi:nodetypes="ccc" />
    <path
       style="color:#000000;fill:#eedbde;fill-opacity:1;fill-rule:nonzero;stroke:#000000;stroke-width:1.96318638;stroke-linecap:round;stroke-linejoin:round;stroke-miterlimit:4;stroke-opacity:1;stroke-dasharray:none;stroke-dashoffset:0;marker:none;visibility:visible;display:inline;overflow:visible;enable-background:accumulate"
       d="m 199.5938,878.6342 c 0,11.32883 -6.76549,17.7081 -18.1383,17.7081 -11.3728,0 -17.78773,-8.13212 -17.78773,-19.46095 0,-11.32883 -2.44781,-21.54039 18.13831,-18.23397 13.2945,2.13529 17.78772,8.65798 17.78772,19.98682 z"
       id="path2987"
       inkscape:connector-curvature="0"
       sodipodi:nodetypes="sssss" />
    <path
       id="path3763"
       style="fill:none;stroke:#000000;stroke-width:2.26671672;stroke-linecap:butt;stroke-linejoin:miter;stroke-miterlimit:4;stroke-opacity:1;stroke-dasharray:none"
       d="m 182.67041,909.51596 c 42.55935,11.88833 42.46065,-26.43644 48.97728,-50.19158 m -52.21545,46.54864 c -0.86711,23.78252 -8.66437,42.61495 -46.95342,39.66754 m 48.97728,-51.81067 -3.03578,63.65022 -24.37249,55.36459 m 48.47195,6.8091 -24.09946,-62.17369"
       inkscape:connector-curvature="0"
       sodipodi:nodetypes="ccccccccc" />
    <path
       style="fill:#ffffff;stroke:#000000;stroke-width:1.96318638;stroke-linecap:butt;stroke-linejoin:miter;stroke-miterlimit:4;stroke-opacity:1;stroke-dasharray:none"
       d="m 173.605,916.78464 c -14.08409,31.96532 -23.89599,54.27875 -30.06387,85.58436 22.94349,2.0241 44.76989,12.7276 69.67817,10.8221 -12.82206,-31.29328 -19.91711,-64.22286 -28.3961,-96.75703"
       id="path3841"
       inkscape:connector-curvature="0"
       sodipodi:nodetypes="cccc" />
    <g
       id="g3765"
       transform="matrix(0.74296005,0,0,0.74296005,-63.219564,371.00583)">
      <path
         sodipodi:nodetypes="scccss"
         inkscape:connector-curvature="0"
         id="path2991"
         d="m 322.85715,683.16312 c -44.12795,8.89937 -18.89555,94.48102 -18.19191,94.57484 7.95846,-7.75171 -0.44113,-13.85828 12.23136,-18.91626 13.20401,4.66342 15.35862,10.66403 25.21227,22.02814 -3.51215,-20.32209 25.32948,-74.39877 -6.75172,-94.47243 -3.6471,-2.28204 -8.28269,-4.0648 -12.5,-3.21429 z"
         style="fill:#ffffff;stroke:#000000;stroke-width:2.28819513;stroke-linecap:butt;stroke-linejoin:miter;stroke-miterlimit:4;stroke-opacity:1;stroke-dasharray:none" />
      <path
         sodipodi:nodetypes="scccss"
         inkscape:connector-curvature="0"
         id="path2989"
         d="m 318.82397,689.36762 c -18.87943,14.14819 -9.93732,65.15373 -9.93732,65.15373 5.39446,-11.84879 4.70736,-34.11751 15.16024,-38.37866 1.26983,19.44166 9.54691,36.39345 13.34851,49.6535 -0.0702,0.0401 8.4189,-55.74432 -5.71429,-75.71429 -2.47961,-3.50365 -9.42229,-3.28835 -12.85714,-0.71428 z"
         style="fill:#ffffff;stroke:#000000;stroke-width:2.28819513;stroke-linecap:butt;stroke-linejoin:miter;stroke-miterlimit:4;stroke-opacity:1;stroke-dasharray:none" />
    </g>
    <path
       style="fill:none;stroke:#000000;stroke-width:1.13335836;stroke-linecap:round;stroke-linejoin:miter;stroke-miterlimit:4;stroke-opacity:1;stroke-dasharray:none"
       d="m 172.19557,870.4314 c 1.78342,-0.90227 3.50285,-0.87439 5.20849,-0.64582"
       id="path3769"
       inkscape:connector-curvature="0"
       sodipodi:nodetypes="cc" />
    <path
       style="fill:none;stroke:#000000;stroke-width:1.13335836;stroke-linecap:round;stroke-linejoin:miter;stroke-miterlimit:4;stroke-opacity:1;stroke-dasharray:none"
       d="m 182.26447,870.20045 c 1.55649,-0.42103 2.90545,0.57087 4.30608,1.21103"
       id="path3771"
       inkscape:connector-curvature="0"
       sodipodi:nodetypes="cc" />
    <path
       style="fill:none;stroke:#000000;stroke-width:4.53343344;stroke-linecap:round;stroke-linejoin:miter;stroke-miterlimit:4;stroke-opacity:1;stroke-dasharray:none"
       d="m 184.2091,859.23915 c -1.58044,8.43109 8.18569,7.89617 15.16946,7.87094"
       id="path3773"
       inkscape:connector-curvature="0"
       sodipodi:nodetypes="cc" />
    <path
       style="fill:none;stroke:#000000;stroke-width:4.53343344;stroke-linecap:round;stroke-linejoin:miter;stroke-miterlimit:4;stroke-opacity:1;stroke-dasharray:none"
       d="m 179.05721,858.80982 c -0.9766,5.96936 -6.73954,3.91843 -11.16243,1.57419"
       id="path3775"
       inkscape:connector-curvature="0"
       sodipodi:nodetypes="cc" />
    <g
       transform="matrix(0.4907966,0,0,0.4907966,240.50176,264.75134)"
       id="g4150">
      <path
         sodipodi:nodetypes="zzcsscsscssz"
         inkscape:connector-curvature="0"
         id="path4152"
         d="m -89.875532,1133.7713 c 2.221865,37.385 42.478113,34.0288 45.992007,34.2236 3.513894,0.1948 35.2715257,-3.5164 38.5546127,-3.3394 0.4292575,4.4054 8.5070759,16.5492 25.5264623,21.1288 13.942934,3.7519 31.304265,-7.006 45.314519,-4.8148 15.474815,2.4203 32.236323,10.5706 34.997331,9.1474 -2.185582,-1.285 -18.90934,-10.4682 -34.163885,-13.0546 -14.733233,-2.498 -32.986611,8.6017 -46.27506,5.2735 -12.688512,-3.178 -16.485766,-13.6129 -15.9165673,-17.2118 34.4018053,0.38 39.2174533,-20.2904 38.4739423,-36.2072 -1.069837,-22.9026 -27.419142,-33.1439 -73.696594,-33.1439 -41.807751,0 -61.028632,0.6134 -58.806768,37.9984 z"
         style="fill:#ffffff;stroke:#000000;stroke-width:2;stroke-linecap:butt;stroke-linejoin:miter;stroke-miterlimit:4;stroke-opacity:1;stroke-dasharray:none" />
      <text
         xml:space="preserve"
         style="font-size:19.71308517px;font-style:normal;font-variant:normal;font-weight:normal;font-stretch:normal;text-align:center;line-height:125%;letter-spacing:0px;word-spacing:0px;text-anchor:middle;fill:#000000;fill-opacity:1;stroke:none;font-family:Arial;-inkscape-font-specification:Arial"
         x="9.782609"
         y="1127.3278"
         id="text4154"
         sodipodi:linespacing="125%"><tspan
           sodipodi:role="line"
           x="15.673433"
           y="1127.3278"
           id="tspan4158"
           style="font-style:normal;font-variant:normal;font-weight:normal;font-stretch:normal;text-align:end;text-anchor:end;font-family:Comic Sans MS;-inkscape-font-specification:Comic Sans MS">VERY  </tspan><tspan
           sodipodi:role="line"
           x="9.782609"
           y="1151.9691"
           style="font-style:normal;font-variant:normal;font-weight:normal;font-stretch:normal;text-align:end;text-anchor:end;font-family:Comic Sans MS;-inkscape-font-specification:Comic Sans MS"
           id="tspan4162">CLEVER!</tspan></text>
    </g>
    <g
       id="g3828"
       transform="matrix(0.4907966,0,0,0.4907966,31.273982,525.09142)">
      <path
         sodipodi:nodetypes="sszzzzs"
         inkscape:connector-curvature="0"
         id="path3799"
         d="m 403.80848,641.24241 c 2.82887,0.24082 17.54227,0.28096 23.73858,1.26269 6.84903,1.08514 -9.5327,8.40988 -11.36421,17.42513 -1.83151,9.01525 25.78032,20.18753 16.16244,32.57742 -9.61788,12.38989 -44.17249,10.81228 -51.51778,-3.283 -7.34529,-14.09528 22.70611,-21.10623 25.25381,-29.7995 2.5477,-8.69327 -8.35891,-18.70084 -2.27284,-18.18274 z"
         style="fill:#4e9a06;stroke:#000000;stroke-width:3;stroke-linecap:butt;stroke-linejoin:miter;stroke-miterlimit:4;stroke-opacity:1;stroke-dasharray:none" />
      <path
         inkscape:connector-curvature="0"
         id="path3803"
         d="m 402.67206,652.48036 c 0.56821,0 20.01365,2.77792 20.01365,2.77792"
         style="fill:none;stroke:#000000;stroke-width:4;stroke-linecap:butt;stroke-linejoin:miter;stroke-miterlimit:4;stroke-opacity:1;stroke-dasharray:none" />
      <path
         inkscape:connector-curvature="0"
         id="path3805"
         d="m 401.85131,659.48829 19.69797,0.82075"
         style="fill:none;stroke:#000000;stroke-width:4;stroke-linecap:butt;stroke-linejoin:miter;stroke-miterlimit:4;stroke-opacity:1;stroke-dasharray:none" />
    </g>
    <path
       sodipodi:type="arc"
       style="color:#000000;fill:#000000;fill-opacity:1;fill-rule:nonzero;stroke:none;stroke-width:3;marker:none;visibility:visible;display:inline;overflow:visible;enable-background:accumulate"
       id="path3801"
       sodipodi:cx="409.23804"
       sodipodi:cy="207.80827"
       sodipodi:rx="10.227795"
       sodipodi:ry="9.5964489"
       d="m 419.46583,207.80827 a 10.227795,9.5964489 0 1 1 -20.45559,0 10.227795,9.5964489 0 1 1 20.45559,0 z"
       transform="matrix(0.4907966,0,0,0.4907966,29.910588,766.82252)" />
    <g
       id="g3833"
       transform="matrix(0.4907966,0,0,0.4907966,-69.865024,627.46987)">
      <path
         style="fill:#a40000;stroke:#000000;stroke-width:3;stroke-linecap:butt;stroke-linejoin:miter;stroke-miterlimit:4;stroke-opacity:1;stroke-dasharray:none"
         d="m 403.80848,641.24241 c 2.82887,0.24082 17.54227,0.28096 23.73858,1.26269 6.84903,1.08514 -9.5327,8.40988 -11.36421,17.42513 -1.83151,9.01525 16.94149,18.6723 7.32361,31.06219 -9.61788,12.38989 -28.26259,11.06482 -35.60788,-3.03046 -7.34529,-14.09528 15.63504,-19.84354 18.18274,-28.53681 2.5477,-8.69327 -8.35891,-18.70084 -2.27284,-18.18274 z"
         id="path3835"
         inkscape:connector-curvature="0"
         sodipodi:nodetypes="sszzzzs" />
      <path
         style="fill:none;stroke:#000000;stroke-width:4;stroke-linecap:butt;stroke-linejoin:miter;stroke-miterlimit:4;stroke-opacity:1;stroke-dasharray:none"
         d="m 402.67206,652.48036 c 0.56821,0 20.01365,2.77792 20.01365,2.77792"
         id="path3837"
         inkscape:connector-curvature="0" />
      <path
         style="fill:none;stroke:#000000;stroke-width:4;stroke-linecap:butt;stroke-linejoin:miter;stroke-miterlimit:4;stroke-opacity:1;stroke-dasharray:none"
         d="m 401.85131,659.48829 19.69797,0.82075"
         id="path3839"
         inkscape:connector-curvature="0" />
    </g>
    <path
       style="fill:#eedbde;stroke:#000000;stroke-width:1.96318638;stroke-linecap:round;stroke-linejoin:miter;stroke-miterlimit:4;stroke-opacity:1;stroke-dasharray:none"
       d="m 178.39653,872.15458 c -10.38743,-0.4591 -17.14621,5.50266 -11.01347,9.52507 3.13121,2.05373 13.00539,-3.9076 13.00539,-3.9076"
       id="path3845"
       inkscape:connector-curvature="0"
       sodipodi:nodetypes="csc" />
    <path
       style="fill:none;stroke:#000000;stroke-width:1.96318638;stroke-linecap:butt;stroke-linejoin:miter;stroke-miterlimit:4;stroke-opacity:1;stroke-dasharray:none"
       d="m 18.879496,758.49714 c 95.162034,2.78155 177.956744,6.07614 273.174474,4.9578 -9.87152,62.31651 5.15257,125.1608 2.22487,188.1976 -1.25583,27.03935 -8.3681,79.81276 -8.3681,79.81276 0,0 -43.0269,1.1223 -59.02248,0.3066 -71.56432,-3.6493 -143.301731,-0.5089 -214.949676,0.3955 -12.7114229,-93.56175 18.674122,-196.17256 6.940912,-273.67026 z"
       id="path4047"
       inkscape:connector-curvature="0"
       sodipodi:nodetypes="ccscscc" />
    <g
       id="g4080"
       transform="matrix(0.4907966,0,0,0.4907966,65.482765,285.13417)">
      <path
         style="fill:#ffffff;stroke:#000000;stroke-width:2;stroke-linecap:butt;stroke-linejoin:miter;stroke-miterlimit:4;stroke-opacity:1;stroke-dasharray:none"
         d="m 36.957168,1133.7713 c -2.221865,37.385 -46.0495419,31.1717 -49.563436,31.3665 -3.513894,0.1948 -31.700097,-0.6593 -34.983184,-0.4823 -1.169347,12.0008 -28.954922,35.1032 -37.266884,30.8185 6.312067,-3.7111 29.566598,-19.0795 27.784084,-30.35 -34.401805,0.38 -34.719224,-8.9062 -31.90795,-24.5904 7.635828,-42.6006 21.358226,-36.6795 67.635678,-36.6795 41.807751,0 60.523556,-7.4678 58.301692,29.9172 z"
         id="path4072"
         inkscape:connector-curvature="0"
         sodipodi:nodetypes="zzcccssz" />
      <text
         sodipodi:linespacing="125%"
         id="text4074"
         y="1128.6338"
         x="-30.7915"
         style="font-size:19.71308517px;font-style:normal;font-variant:normal;font-weight:normal;font-stretch:normal;text-align:center;line-height:125%;letter-spacing:0px;word-spacing:0px;text-anchor:middle;fill:#000000;fill-opacity:1;stroke:none;font-family:Arial;-inkscape-font-specification:Arial"
         xml:space="preserve"><tspan
           style="font-style:normal;font-variant:normal;font-weight:normal;font-stretch:normal;font-family:Comic Sans MS;-inkscape-font-specification:Comic Sans MS"
           y="1128.6338"
           x="-30.7915"
           id="tspan4076"
           sodipodi:role="line">WELL</tspan><tspan
           style="font-style:normal;font-variant:normal;font-weight:normal;font-stretch:normal;font-family:Comic Sans MS;-inkscape-font-specification:Comic Sans MS"
           id="tspan4078"
           y="1153.2751"
           x="-30.7915"
           sodipodi:role="line">DONE!</tspan></text>
    </g>
    <g
       id="g4086"
       transform="matrix(0.4907966,0,0,0.4907966,4.0061129,526.08298)">
      <path
         sodipodi:nodetypes="zzcccssz"
         inkscape:connector-curvature="0"
         id="path3809"
         d="m 65.713244,564.34281 c 4.775419,80.35096 183.409796,66.99684 190.962156,67.41547 7.55236,0.41863 31.28766,0.11854 38.34395,0.49863 2.51326,25.7931 10.03546,48.58084 17.15381,71.61088 0.2504,-23.32832 -0.6037,-46.38052 3.22743,-70.60402 73.93929,0.81673 106.86079,-20.6772 100.81856,-54.38699 -16.41157,-91.56063 -84.28501,-80.36973 -183.74845,-80.36973 -89.85678,0 -171.532875,-14.5152 -166.757456,65.83576 z"
         style="fill:#ffffff;stroke:#000000;stroke-width:2;stroke-linecap:butt;stroke-linejoin:miter;stroke-miterlimit:4;stroke-opacity:1;stroke-dasharray:none" />
      <text
         xml:space="preserve"
         style="font-size:19.71308517px;font-style:normal;font-variant:normal;font-weight:normal;font-stretch:normal;text-align:center;line-height:150%;letter-spacing:0px;word-spacing:0px;text-anchor:middle;fill:#000000;fill-opacity:1;stroke:none;font-family:Arial;-inkscape-font-specification:Arial"
         x="243.44394"
         y="538.43347"
         id="text4154-7"
         sodipodi:linespacing="150%"
         transform="matrix(0.99993084,0.01176086,-0.01176086,0.99993084,0,0)"><tspan
           sodipodi:role="line"
           x="243.44394"
           y="538.43347"
           style="font-style:normal;font-variant:normal;font-weight:normal;font-stretch:normal;text-align:center;line-height:150%;text-anchor:middle;font-family:Comic Sans MS;-inkscape-font-specification:Comic Sans MS"
           id="tspan4162-3">I'VE INVENTED A METHOD</tspan><tspan
           sodipodi:role="line"
           x="246.38934"
           y="568.00311"
           style="font-style:normal;font-variant:normal;font-weight:normal;font-stretch:normal;text-align:center;line-height:150%;text-anchor:middle;font-family:Comic Sans MS;-inkscape-font-specification:Comic Sans MS"
           id="tspan4190">OF MAKING POWDERED          </tspan><tspan
           sodipodi:role="line"
           x="246.38934"
           y="597.57275"
           style="font-style:normal;font-variant:normal;font-weight:normal;font-stretch:normal;text-align:center;line-height:150%;text-anchor:middle;font-family:Comic Sans MS;-inkscape-font-specification:Comic Sans MS"
           id="tspan4192">CAULDRONS TOO!              </tspan></text>
    </g>
    <g
       transform="matrix(0.4907966,0,0,0.4907966,122.99318,317.85562)"
       id="g4140">
      <path
         sodipodi:nodetypes="zzcsscsscssz"
         inkscape:connector-curvature="0"
         id="path4142"
         d="m 49.457168,1138.4142 c -2.221865,37.385 -58.5495419,26.5288 -62.063436,26.7236 -3.513894,0.1948 -31.700097,-0.6593 -34.983184,-0.4823 -0.403375,4.1398 -17.784011,19.8158 -21.070958,42.6116 -2.084097,14.4537 4.996968,30.1215 4.685072,45.4283 -0.622195,30.5352 -9.754313,30.3624 -13.380998,28.4929 2.622452,-1.5419 9.701859,-0.4953 8.608917,-28.8661 -0.602165,-15.631 -7.900807,-30.9576 -6.496955,-45.5884 2.181041,-22.7306 18.806036,-37.6017 18.172122,-41.6098 -34.401805,0.38 -62.933508,-8.1919 -60.122238,-23.8761 7.63583,-42.6006 21.358228,-36.6795 67.63568,-36.6795 41.8077512,0 101.237842,-3.5392 99.015978,33.8458 z"
         style="fill:#ffffff;stroke:#000000;stroke-width:2;stroke-linecap:butt;stroke-linejoin:miter;stroke-miterlimit:4;stroke-opacity:1;stroke-dasharray:none" />
      <text
         xml:space="preserve"
         style="font-size:19.71308517px;font-style:normal;font-variant:normal;font-weight:normal;font-stretch:normal;text-align:center;line-height:125%;letter-spacing:0px;word-spacing:0px;text-anchor:middle;fill:#000000;fill-opacity:1;stroke:none;font-family:Arial;-inkscape-font-specification:Arial"
         x="-30.7915"
         y="1128.6338"
         id="text4144"
         sodipodi:linespacing="125%"><tspan
           sodipodi:role="line"
           id="tspan4146"
           x="-30.7915"
           y="1128.6338"
           style="font-style:normal;font-variant:normal;font-weight:normal;font-stretch:normal;font-family:Comic Sans MS;-inkscape-font-specification:Comic Sans MS">HOW</tspan><tspan
           sodipodi:role="line"
           x="-30.7915"
           y="1153.2751"
           id="tspan4148"
           style="font-style:normal;font-variant:normal;font-weight:normal;font-stretch:normal;font-family:Comic Sans MS;-inkscape-font-specification:Comic Sans MS">INGENIOUS!</tspan></text>
    </g>
  </g>
</svg>
